{
	"asset":{
		"generator":"Khronos glTF Blender I/O v3.6.27",
		"version":"2.0"
	},
	"extensionsUsed":[
		"KHR_materials_emissive_strength"
	],
	"scene":0,
	"scenes":[
		{
			"name":"Scene",
			"nodes":[
				0,
				1,
				2
			]
		}
	],
	"nodes":[
		{
			"mesh":0,
			"name":"volleyball ball"
		},
		{
			"mesh":1,
			"name":"light 360",
			"scale":[
				1.0687953233718872,
				0.26188239455223083,
				1.0687953233718872
			],
			"translation":[
				0,
				0.30639028549194336,
				0
			]
		},
		{
			"mesh":2,
			"name":"light up",
			"scale":[
				1.0687953233718872,
				0.2204103022813797,
				1.0687953233718872
			],
			"translation":[
				0,
				0.6535295248031616,
				0
			]
		}
	],
	"materials":[
		{
			"doubleSided":true,
			"name":"Color 1",
			"pbrMetallicRoughness":{
				"metallicFactor":0
			}
		},
		{
			"doubleSided":true,
			"name":"Color 2",
			"pbrMetallicRoughness":{
				"metallicFactor":0
			}
		},
		{
			"doubleSided":true,
			"name":"Color 3",
			"pbrMetallicRoughness":{
				"metallicFactor":0
			}
		},
		{
			"doubleSided":true,
			"emissiveFactor":[
				1,
				1,
				1
			],
			"extensions":{
				"KHR_materials_emissive_strength":{
					"emissiveStrength":2.5
				}
			},
			"name":"light",
			"pbrMetallicRoughness":{
				"baseColorFactor":[
					0,
					0,
					0,
					1
				]
			}
		}
	],
	"meshes":[
		{
			"name":"Cube.004",
			"primitives":[
				{
					"attributes":{
						"POSITION":0,
						"NORMAL":1,
						"TEXCOORD_0":2
					},
					"indices":3,
					"material":0
				},
				{
					"attributes":{
						"POSITION":4,
						"NORMAL":5,
						"TEXCOORD_0":6
					},
					"indices":7,
					"material":1
				},
				{
					"attributes":{
						"POSITION":8,
						"NORMAL":9,
						"TEXCOORD_0":10
					},
					"indices":11,
					"material":2
				}
			]
		},
		{
			"name":"Cylinder",
			"primitives":[
				{
					"attributes":{
						"POSITION":12,
						"NORMAL":13,
						"TEXCOORD_0":14
					},
					"indices":15,
					"material":3
				}
			]
		},
		{
			"name":"Cylinder.001",
			"primitives":[
				{
					"attributes":{
						"POSITION":16,
						"NORMAL":17,
						"TEXCOORD_0":18
					},
					"indices":19,
					"material":3
				}
			]
		}
	],
	"accessors":[
		{
			"bufferView":0,
			"componentType":5126,
			"count":375,
			"max":[
				0.10203961282968521,
				0.1964518427848816,
				0.10171116888523102
			],
			"min":[
				-0.10203957557678223,
				-0.0002612173557281494,
				-0.10152892023324966
			],
			"type":"VEC3"
		},
		{
			"bufferView":1,
			"componentType":5126,
			"count":375,
			"type":"VEC3"
		},
		{
			"bufferView":2,
			"componentType":5126,
			"count":375,
			"type":"VEC2"
		},
		{
			"bufferView":3,
			"componentType":5123,
			"count":1344,
			"type":"SCALAR"
		},
		{
			"bufferView":4,
			"componentType":5126,
			"count":197,
			"max":[
				0.0701923742890358,
				0.20194488763809204,
				0.10005070269107819
			],
			"min":[
				-0.10278107225894928,
				0.010009042918682098,
				-0.09948797523975372
			],
			"type":"VEC3"
		},
		{
			"bufferView":5,
			"componentType":5126,
			"count":197,
			"type":"VEC3"
		},
		{
			"bufferView":6,
			"componentType":5126,
			"count":197,
			"type":"VEC2"
		},
		{
			"bufferView":7,
			"componentType":5123,
			"count":672,
			"type":"SCALAR"
		},
		{
			"bufferView":8,
			"componentType":5126,
			"count":285,
			"max":[
				0.10278109461069107,
				0.20310932397842407,
				0.09682077169418335
			],
			"min":[
				-0.10201159119606018,
				-0.0014256462454795837,
				-0.10171123594045639
			],
			"type":"VEC3"
		},
		{
			"bufferView":9,
			"componentType":5126,
			"count":285,
			"type":"VEC3"
		},
		{
			"bufferView":10,
			"componentType":5126,
			"count":285,
			"type":"VEC2"
		},
		{
			"bufferView":11,
			"componentType":5123,
			"count":1008,
			"type":"SCALAR"
		},
		{
			"bufferView":12,
			"componentType":5126,
			"count":64,
			"max":[
				1.172262191772461,
				1.172258973121643,
				1.172262191772461
			],
			"min":[
				-1.172262191772461,
				-1.1722657680511475,
				-1.172262191772461
			],
			"type":"VEC3"
		},
		{
			"bufferView":13,
			"componentType":5126,
			"count":64,
			"type":"VEC3"
		},
		{
			"bufferView":14,
			"componentType":5126,
			"count":64,
			"type":"VEC2"
		},
		{
			"bufferView":15,
			"componentType":5123,
			"count":192,
			"type":"SCALAR"
		},
		{
			"bufferView":16,
			"componentType":5126,
			"count":58,
			"max":[
				0.5489766001701355,
				-0.9393923282623291,
				0.5489766001701355
			],
			"min":[
				-0.5489766001701355,
				-0.9393923282623291,
				-0.5489766001701355
			],
			"type":"VEC3"
		},
		{
			"bufferView":17,
			"componentType":5126,
			"count":58,
			"type":"VEC3"
		},
		{
			"bufferView":18,
			"componentType":5126,
			"count":58,
			"type":"VEC2"
		},
		{
			"bufferView":19,
			"componentType":5123,
			"count":96,
			"type":"SCALAR"
		}
	],
	"bufferViews":[
		{
			"buffer":0,
			"byteLength":4500,
			"byteOffset":0,
			"target":34962
		},
		{
			"buffer":0,
			"byteLength":4500,
			"byteOffset":4500,
			"target":34962
		},
		{
			"buffer":0,
			"byteLength":3000,
			"byteOffset":9000,
			"target":34962
		},
		{
			"buffer":0,
			"byteLength":2688,
			"byteOffset":12000,
			"target":34963
		},
		{
			"buffer":0,
			"byteLength":2364,
			"byteOffset":14688,
			"target":34962
		},
		{
			"buffer":0,
			"byteLength":2364,
			"byteOffset":17052,
			"target":34962
		},
		{
			"buffer":0,
			"byteLength":1576,
			"byteOffset":19416,
			"target":34962
		},
		{
			"buffer":0,
			"byteLength":1344,
			"byteOffset":20992,
			"target":34963
		},
		{
			"buffer":0,
			"byteLength":3420,
			"byteOffset":22336,
			"target":34962
		},
		{
			"buffer":0,
			"byteLength":3420,
			"byteOffset":25756,
			"target":34962
		},
		{
			"buffer":0,
			"byteLength":2280,
			"byteOffset":29176,
			"target":34962
		},
		{
			"buffer":0,
			"byteLength":2016,
			"byteOffset":31456,
			"target":34963
		},
		{
			"buffer":0,
			"byteLength":768,
			"byteOffset":33472,
			"target":34962
		},
		{
			"buffer":0,
			"byteLength":768,
			"byteOffset":34240,
			"target":34962
		},
		{
			"buffer":0,
			"byteLength":512,
			"byteOffset":35008,
			"target":34962
		},
		{
			"buffer":0,
			"byteLength":384,
			"byteOffset":35520,
			"target":34963
		},
		{
			"buffer":0,
			"byteLength":696,
			"byteOffset":35904,
			"target":34962
		},
		{
			"buffer":0,
			"byteLength":696,
			"byteOffset":36600,
			"target":34962
		},
		{
			"buffer":0,
			"byteLength":464,
			"byteOffset":37296,
			"target":34962
		},
		{
			"buffer":0,
			"byteLength":192,
			"byteOffset":37760,
			"target":34963
		}
	],
	"buffers":[
		{
			"byteLength":37952,
			"uri":"Volleyball_ball.bin"
		}
	]
}
