{
	"asset":{
		"generator":"Khronos glTF Blender I/O v4.0.44",
		"version":"2.0"
	},
	"extensionsUsed":[
		"KHR_materials_specular",
		"KHR_materials_ior"
	],
	"scene":0,
	"scenes":[
		{
			"name":"Scene",
			"nodes":[
				0
			]
		}
	],
	"nodes":[
		{
			"mesh":0,
			"name":"Can",
			"rotation":[
				0.7071068286895752,
				0,
				0,
				0.7071068286895752
			]
		}
	],
	"materials":[
		{
			"doubleSided":true,
			"extensions":{
				"KHR_materials_specular":{
					"specularFactor":0
				},
				"KHR_materials_ior":{
					"ior":1.4500000476837158
				}
			},
			"name":"02_-_Default",
			"pbrMetallicRoughness":{
				"baseColorFactor":[
					0.5882350206375122,
					0.5882350206375122,
					0.5882350206375122,
					1
				],
				"metallicFactor":0,
				"roughnessFactor":0.858578622341156
			}
		},
		{
			"doubleSided":true,
			"extensions":{
				"KHR_materials_specular":{
					"specularFactor":0
				},
				"KHR_materials_ior":{
					"ior":1.4500000476837158
				}
			},
			"name":"01_-_Default",
			"pbrMetallicRoughness":{
				"metallicFactor":0,
				"roughnessFactor":0.858578622341156
			}
		}
	],
	"meshes":[
		{
			"name":"Can",
			"primitives":[
				{
					"attributes":{
						"POSITION":0,
						"NORMAL":1,
						"TEXCOORD_0":2
					},
					"indices":3,
					"material":0
				},
				{
					"attributes":{
						"POSITION":4,
						"NORMAL":5,
						"TEXCOORD_0":6
					},
					"indices":7,
					"material":1
				}
			]
		}
	],
	"accessors":[
		{
			"bufferView":0,
			"componentType":5126,
			"count":2428,
			"max":[
				-2.451508045196533,
				1.0684809684753418,
				0.15372499823570251
			],
			"min":[
				-4.576412200927734,
				-1.0561740398406982,
				-3.6732540130615234
			],
			"type":"VEC3"
		},
		{
			"bufferView":1,
			"componentType":5126,
			"count":2428,
			"type":"VEC3"
		},
		{
			"bufferView":2,
			"componentType":5126,
			"count":2428,
			"type":"VEC2"
		},
		{
			"bufferView":3,
			"componentType":5123,
			"count":9024,
			"type":"SCALAR"
		},
		{
			"bufferView":4,
			"componentType":5126,
			"count":331,
			"max":[
				-2.4502339363098145,
				1.069754958152771,
				-0.13398200273513794
			],
			"min":[
				-4.577685832977295,
				-1.0574480295181274,
				-3.590111017227173
			],
			"type":"VEC3"
		},
		{
			"bufferView":5,
			"componentType":5126,
			"count":331,
			"type":"VEC3"
		},
		{
			"bufferView":6,
			"componentType":5126,
			"count":331,
			"type":"VEC2"
		},
		{
			"bufferView":7,
			"componentType":5123,
			"count":1512,
			"type":"SCALAR"
		}
	],
	"bufferViews":[
		{
			"buffer":0,
			"byteLength":29136,
			"byteOffset":0,
			"target":34962
		},
		{
			"buffer":0,
			"byteLength":29136,
			"byteOffset":29136,
			"target":34962
		},
		{
			"buffer":0,
			"byteLength":19424,
			"byteOffset":58272,
			"target":34962
		},
		{
			"buffer":0,
			"byteLength":18048,
			"byteOffset":77696,
			"target":34963
		},
		{
			"buffer":0,
			"byteLength":3972,
			"byteOffset":95744,
			"target":34962
		},
		{
			"buffer":0,
			"byteLength":3972,
			"byteOffset":99716,
			"target":34962
		},
		{
			"buffer":0,
			"byteLength":2648,
			"byteOffset":103688,
			"target":34962
		},
		{
			"buffer":0,
			"byteLength":3024,
			"byteOffset":106336,
			"target":34963
		}
	],
	"buffers":[
		{
			"byteLength":109360,
			"uri":"can.bin"
		}
	]
}
